Coordinates
version=1
nRows=19
nColumns=33
inDegrees=yes

Units are S.I. units (second, meters, Newtons, ...)
Angles are in degrees.

endheader
time	ground_thorax_rot_x	ground_thorax_rot_y	ground_thorax_rot_z	ground_thorax_tx	ground_thorax_ty	ground_thorax_tz	clav_prot_r	clav_elev_r	scapula_abduction_r	scapula_elevation_r	scapula_upward_rot_r	scapula_winging_r	shoulder_elv_r	plane_of_elev_r	axial_rot_r	elbow_flexion_r	pro_sup_r	wrist_flex_r	wrist_dev_r	clav_prot_l	clav_elev_l	scapula_abduction_l	scapula_elevation_l	scapula_upward_rot_l	scapula_winging_l	shoulder_elv_l	plane_of_elev_l	axial_rot_l	elbow_flexion_l	pro_sup_l	wrist_flex_l	wrist_dev_l
      6.84000000	      1.89428627	      5.44514734	     12.74742605	     -0.12409038	      1.03460490	      0.03119427	      2.27048045	     10.78025393	     15.65223260	      6.19827673	     24.49748141	     -9.95550133	     22.19072931	    -75.88006750	     57.42714639	     65.51877418	    -20.59639682	     69.99990308	    -24.99999983	     11.21078742	     -5.13522995	    -16.45315110	    -20.20921175	    -42.48412667	     -0.39701959	     64.20515782	    -37.34422031	     -2.40907709	     72.40690624	     18.77563546	      3.00544408	    -24.99999983
      6.85000000	      1.87437999	      5.49275415	     12.82663639	     -0.12431302	      1.03409640	      0.03130165	      2.27832405	     10.76741736	     15.62840793	      6.20342067	     24.45077838	     -9.94472018	     22.14027792	    -75.87685475	     57.44653956	     65.51393444	    -20.59059179	     69.99541858	    -24.99999983	     11.20482423	     -5.16480961	    -16.43676546	    -20.17410556	    -42.46846411	     -0.39959695	     64.22370589	    -37.28747826	     -2.38720316	     72.40579312	     18.76457778	      3.00955659	    -24.99999983
      6.86000000	      1.69884086	      5.73769261	     12.82791282	     -0.12452149	      1.03387145	      0.03163011	      2.15727156	     10.65495689	     14.92638527	      6.30542699	     23.86043194	     -9.66508315	     21.77828931	    -75.12360596	     56.85577337	     65.29716824	    -20.85756166	     70.00000021	    -24.99999983	     11.33863250	     -5.24431866	    -16.78589395	    -20.26230403	    -42.84473539	     -0.29725039	     64.65779724	    -36.75752967	     -2.23919337	     72.13006060	     18.47785244	      3.22292119	    -24.99999983
      6.87000000	      1.67566036	      5.73460094	     12.93330300	     -0.12461773	      1.03328205	      0.03177628	      2.15114614	     10.64986460	     14.92835335	      6.29663266	     23.87327750	     -9.66856233	     21.77601918	    -75.10568665	     56.84886977	     65.31557235	    -20.85893631	     70.00000021	    -24.99999983	     11.33915647	     -5.27089939	    -16.77518883	    -20.21945510	    -42.80634083	     -0.29284326	     64.67839745	    -36.69200320	     -2.21635402	     72.14991540	     18.47196776	      3.21975025	    -24.99999983
      6.88000000	      1.65748018	      5.84466621	     13.06204958	     -0.12455864	      1.03284920	      0.03191239	      2.14565954	     10.62494265	     14.88220991	      6.29462257	     23.81812076	     -9.64725480	     21.71753218	    -75.10639769	     56.84922109	     65.36352377	    -20.87657598	     70.00000021	    -24.99999983	     11.31770315	     -5.34406463	    -16.72510482	    -20.13175949	    -42.76480123	     -0.30524783	     64.70809666	    -36.58738230	     -2.08459513	     72.09762993	     18.45654688	      3.21228331	    -24.99999983
      6.89000000	      1.63359767	      5.84552584	     13.16502149	     -0.12450277	      1.03235106	      0.03206797	      2.13785335	     10.61649476	     14.89379772	      6.27666434	     23.84850860	     -9.65475311	     21.73911864	    -75.06252432	     56.82007065	     65.37960970	    -20.88625651	     70.00000021	    -24.99999983	     11.32082701	     -5.37122919	    -16.71891372	    -20.08721363	    -42.72351891	     -0.29645093	     64.73592203	    -36.52296964	     -2.05430976	     72.10518596	     18.45147604	      3.20876352	    -24.99999983
      6.90000000	      1.61237405	      5.86358945	     13.25421607	     -0.12438217	      1.03197991	      0.03221449	      2.13137287	     10.60299869	     14.90706764	      6.25752494	     23.87170112	     -9.66231767	     21.75686839	    -75.01359547	     56.79233726	     65.40015840	    -20.89761933	     69.99992810	    -24.99999983	     11.32288927	     -5.40321368	    -16.71051251	    -20.03798081	    -42.68241020	     -0.29210635	     64.76425766	    -36.45705677	     -2.01355344	     72.10658286	     18.44591307	      3.20481730	    -24.99999983
      6.91000000	      1.66563177	      5.86808082	     12.80125082	     -0.12420164	      1.03251360	      0.03256186	      2.06570363	     10.33896185	     14.73979428	      6.08596505	     23.71274051	     -9.57519456	     21.91878169	    -74.59086174	     56.35467776	     65.53566694	    -21.26169256	     69.94970542	    -24.99999983	     11.34294680	     -5.83234883	    -16.75527699	    -19.64767286	    -42.72219352	     -0.25165293	     64.86966803	    -36.06420790	     -1.32891607	     71.67892691	     18.37262052	      3.20808841	    -24.99999983
      6.92000000	      1.65849355	      5.88025629	     12.88098556	     -0.12388697	      1.03231342	      0.03275816	      2.06355283	     10.33618202	     14.76124545	      6.07412026	     23.74059605	     -9.58433903	     21.94054055	    -74.55173010	     56.33374145	     65.54646293	    -21.27284303	     69.94929543	    -24.99999983	     11.35271023	     -5.84382406	    -16.76279086	    -19.62106405	    -42.68827062	     -0.24353361	     64.89981481	    -36.01632307	     -1.30709943	     71.70836432	     18.36596779	      3.20610191	    -24.99999983
      6.93000000	      1.73483712	      6.23129898	     13.08549473	     -0.12464821	      1.03192177	      0.03308485	      2.39384242	     10.51511084	     14.65883827	      6.48336636	     22.95969538	     -9.46288357	     21.97356932	    -74.11184390	     56.05132020	     66.05320041	    -23.32196920	     69.26873607	    -24.99999983	     12.34278657	     -6.59217265	    -19.12123495	    -19.78847166	    -44.73668777	      0.54757248	     64.96684638	    -34.96869739	      0.19834385	     72.09503282	     17.58514960	      3.95477687	    -24.99999983
      6.94000000	      1.71597555	      6.21848528	     13.15926932	     -0.12419176	      1.03199137	      0.03328352	      2.38940888	     10.51400151	     14.68489444	      6.46866089	     22.99993427	     -9.47336849	     21.99454131	    -74.06530306	     56.03184353	     66.07576552	    -23.32136813	     69.27416370	    -24.99999983	     12.35733842	     -6.59882207	    -19.13090431	    -19.75933422	    -44.68652337	      0.56146264	     65.00688832	    -34.91054841	      0.21587839	     72.11658369	     17.57924851	      3.95336480	    -24.99999983
      6.95000000	      1.64277938	      6.19771392	     12.86119165	     -0.12391922	      1.03186662	      0.03346128	      2.43592307	     10.50489819	     14.88901587	      6.41602671	     23.12857350	     -9.55183594	     22.01145184	    -73.79485240	     56.03212808	     66.29016213	    -23.29707405	     69.27753481	    -24.99999983	     12.48575010	     -6.58573247	    -19.30646376	    -19.70040632	    -44.53962033	      0.66457228	     65.17537061	    -34.68260207	      0.23316588	     72.19112270	     17.53679840	      3.98500968	    -24.99999983
      6.96000000	      1.62463385	      6.18035627	     12.95954313	     -0.12337392	      1.03211856	      0.03359299	      2.43302242	     10.49906217	     14.92635305	      6.39406351	     23.17791254	     -9.56190217	     22.04055929	    -73.73500176	     56.00665824	     66.31499576	    -23.30107497	     69.27640854	    -24.99999983	     12.50534815	     -6.60374779	    -19.31988481	    -19.65539946	    -44.47791791	      0.67888309	     65.21685504	    -34.59539721	      0.24393800	     72.22930012	     17.52774760	      3.98559710	    -24.99999983
      6.97000000	      1.57949065	      6.16274497	     12.56577602	     -0.12318388	      1.03208571	      0.03368079	      2.53293772	     10.48045539	     15.25576775	      6.32445267	     23.32865481	     -9.67612668	     22.10772171	    -73.38994881	     56.00401957	     66.54281780	    -23.32175058	     69.19122731	    -24.99999983	     12.69895581	     -6.62817184	    -19.59724003	    -19.53844561	    -44.28847887	      0.83979157	     65.40736547	    -34.25234191	      0.15212727	     72.32276438	     17.46270605	      4.05665313	    -24.99999983
      6.98000000	      1.55800138	      6.14126495	     12.70285489	     -0.12252201	      1.03238255	      0.03380351	      2.52965454	     10.47482614	     15.30342446	      6.29941188	     23.38929085	     -9.69555812	     22.14726722	    -73.31803021	     55.97177828	     66.57301010	    -23.33024837	     69.18399748	    -24.99999983	     12.72487996	     -6.65112150	    -19.61544675	    -19.47859705	    -44.20493113	      0.86239218	     65.46506969	    -34.14403318	      0.16646915	     72.36248471	     17.45044343	      4.05867064	    -24.99999983
      6.99000000	      1.66782041	      6.39279333	     12.38453678	     -0.12303068	      1.03218741	      0.03390331	      2.75575696	     10.46082454	     15.78293193	      6.26609786	     23.43445014	     -9.83981817	     22.78418999	    -73.54135405	     55.91056914	     67.78654715	    -24.47709786	     66.08890460	    -24.99999983	     13.70427654	     -6.96585087	    -21.45870803	    -19.33955416	    -44.66843975	      1.67676346	     64.85599316	    -33.03693253	      1.11461527	     72.34193229	     15.74250027	      5.79275549	    -24.99999983
      7.00000000	      1.56981634	      6.35497228	     12.34362053	     -0.12266490	      1.03236294	      0.03404561	      2.82552841	     10.41486669	     16.01328223	      6.19385156	     23.52719911	     -9.91583219	     22.82398025	    -73.21242575	     55.92976278	     67.83332861	    -24.39361910	     66.02288471	    -24.99999983	     13.85933324	     -6.99157195	    -21.66874306	    -19.22863979	    -44.49007185	      1.80605559	     65.07372624	    -32.83188920	      0.97553577	     72.24564340	     15.72065792	      5.86160406	    -24.99999983
      7.01000000	      1.51968915	      6.37745328	     12.24030192	     -0.12228487	      1.03252253	      0.03408102	      2.90571588	     10.36201479	     16.27131639	      6.11340970	     23.62660408	     -9.99915991	     22.91706752	    -72.88673925	     55.90923704	     67.88405221	    -24.34838198	     65.88750800	    -24.99999983	     14.02431013	     -7.04752605	    -21.88399427	    -19.07174630	    -44.27363632	      1.94671609	     65.28284690	    -32.51464388	      0.80355172	     72.22511066	     15.67136827	      5.96199703	    -24.99999983
      7.02000000	      1.29823348	      6.80545392	     12.35442526	     -0.12235069	      1.03279485	      0.03431022	      2.64066432	     10.08997835	     15.73631459	      5.93611731	     23.48315320	     -9.80942448	     23.87693558	    -72.82534624	     55.78624437	     68.75920310	    -23.24239605	     60.93086067	    -24.99999983	     14.91494934	     -7.23879165	    -23.47609753	    -18.92858901	    -44.46794820	      2.70374053	     65.12886105	    -31.85179531	      1.23051255	     72.12749614	     13.57470327	      8.94940461	    -24.83871414
